<?xml version="1.0" encoding="iso-8859-1"?>
<!-- Generator: Adobe Illustrator 16.0.0, SVG Export Plug-In . SVG Version: 6.00 Build 0)  -->
<!DOCTYPE svg PUBLIC "-//W3C//DTD SVG 1.1//EN" "http://www.w3.org/Graphics/SVG/1.1/DTD/svg11.dtd">
<svg version="1.1" id="Capa_1" xmlns="http://www.w3.org/2000/svg" xmlns:xlink="http://www.w3.org/1999/xlink" x="0px" y="0px"
	 viewBox="0 0 973.4 973.4" style="enable-background:new 0 0 973.4 973.4;" xml:space="preserve"
	>
<g>
	<path d="M0.05,562.4v351c0,33.1,26.9,60,61,60h853.3c32.101,0,59-26.9,59-60v-351c0-33.101-26.899-60-60-60h-84
		c-28.3,0-52.699,19.7-58.6,47.3l-30.5,140.8c-6,27.601-30.4,47.3-58.6,47.3h-389.8c-28.3,0-52.7-19.699-58.6-47.3l-30.5-140.8
		c-6-27.6-30.4-47.3-58.6-47.3h-84C26.951,502.4,0.05,529.3,0.05,562.4z"/>
	<path d="M482.651,668.8h-0.101c-18.8-0.899-36-7.899-49.6-19.1c0,0,0,0-0.101-0.1c-0.5-0.4-1-0.801-1.399-1.2
		c-0.101-0.101-0.101-0.101-0.2-0.2c-0.4-0.4-0.9-0.8-1.3-1.1c-0.101-0.101-0.2-0.2-0.3-0.301c-0.4-0.399-0.801-0.8-1.301-1.199
		c-0.1-0.101-0.199-0.2-0.3-0.301c-0.5-0.5-1-1-1.5-1.5l0,0l-260.8-260.7c-16.6-16.6-24.9-38.4-24.9-60.1c0-21.8,8.3-43.5,24.9-60.1
		c33.2-33.2,87.1-33.2,120.3,0l115.601,115.6V85.1c0-47,38.1-85.1,85.1-85.1s85.1,38.1,85.1,85.1v293.4l115.601-115.6
		c33.2-33.2,87.1-33.2,120.3,0c33.2,33.2,33.2,87.1,0,120.3l-260.8,260.7l0,0c-0.5,0.5-1,1-1.5,1.5c-0.101,0.1-0.2,0.2-0.3,0.3
		c-0.4,0.4-0.801,0.8-1.301,1.2c-0.1,0.1-0.199,0.2-0.3,0.3c-0.399,0.4-0.899,0.8-1.3,1.1c-0.1,0.101-0.1,0.101-0.2,0.2
		c-0.5,0.4-0.899,0.8-1.399,1.2c0,0,0,0-0.101,0.1c-13.6,11.2-30.8,18.2-49.6,19.101h-0.101c-0.699,0-1.3,0.1-2,0.1
		c-0.699,0-1.399,0-2.1,0s-1.4,0-2.1,0C483.951,668.8,483.35,668.8,482.651,668.8z"/>
</g>
<g>
</g>
<g>
</g>
<g>
</g>
<g>
</g>
<g>
</g>
<g>
</g>
<g>
</g>
<g>
</g>
<g>
</g>
<g>
</g>
<g>
</g>
<g>
</g>
<g>
</g>
<g>
</g>
<g>
</g>
</svg>
