<?xml version="1.0" encoding="UTF-8"?>
<!-- Ghost icon from Font Awesome Free 5/6 (fa-ghost) — CC BY 4.0,
     https://fontawesome.com/license/free -->
<svg xmlns="http://www.w3.org/2000/svg" viewBox="0 0 384 512">
  <path d="M186.1.09C81.01 1.999 0 87.98 0 193.12v260.07c0 10.83 12.86 16.51 20.85 9.21l51.43-46.81 51.42 46.81c6.105 5.55 15.41 5.55 21.5 0l51.42-46.81 51.42 46.81c6.106 5.55 15.41 5.55 21.5 0l51.42-46.81 51.42 46.81c7.99 7.29 20.85 1.62 20.85-9.21V189.13C390.31 84.99 297.13-1.84 186.1.09zM128 224c-17.67 0-32-17.91-32-40s14.33-40 32-40 32 17.91 32 40-14.33 40-32 40zm128 0c-17.67 0-32-17.91-32-40s14.33-40 32-40 32 17.91 32 40-14.33 40-32 40z"/>
</svg>
