<?xml version="1.0" encoding="iso-8859-1"?>
<!-- Generator: Adobe Illustrator 16.0.0, SVG Export Plug-In . SVG Version: 6.00 Build 0)  -->
<!DOCTYPE svg PUBLIC "-//W3C//DTD SVG 1.1//EN" "http://www.w3.org/Graphics/SVG/1.1/DTD/svg11.dtd">
<svg version="1.1" id="Capa_1" xmlns="http://www.w3.org/2000/svg" xmlns:xlink="http://www.w3.org/1999/xlink" x="0px" y="0px"
	 width="124.116px" height="124.116px" viewBox="0 0 124.116 124.116" style="enable-background:new 0 0 124.116 124.116;"
	 xml:space="preserve">
<g>
	<path d="M103.341,3.524l-34,34l17.101,17.1l34.1-34c4.7-4.7,4.7-12.4,0-17.1C115.741-1.175,108.142-1.175,103.341,3.524z"/>
	<path d="M80.241,60.924l-17.2-17.1l-2.8-2.8c-1.3-1.3-1.8-3.1-1.3-4.8c0.8-3,1.1-6.2,0.8-9.5c-0.3-3.7-1.3-7.3-3-10.6
		c-1.6-3.2-3.9-6.1-6.6-8.5c-2.7-2.4-5.9-4.3-9.301-5.5c-4.5-1.6-9.3-2-14-1.3c-2.399,0.4-3.399,3.4-1.6,5.1l11.7,11.7
		c4.7,4.7,5,12.7,0.3,17.4c-2.4,2.4-5.5,3.5-8.6,3.5c-3.101,0-6.2-1.2-8.601-3.6l-12-11.8c-0.6-0.6-1.4-0.9-2.1-0.9
		c-1.4,0-2.8,1-3,2.6c-0.2,1.3-0.3,2.6-0.3,3.9c-0.3,14.2,11.6,27.6,25.899,28.9c0.9,0.1,1.8,0.1,2.7,0.1c2.5,0,4.8-0.3,7.1-0.9
		c1.801-0.4,3.601,0.1,4.9,1.4l2.7,2.7l4.8,4.8l7.1,7.101l5.2,5.199l38.8,38.801c2.4,2.399,5.5,3.6,8.601,3.6c3.1,0,6.2-1.2,8.6-3.6
		c4.7-4.7,4.7-12.4,0-17.101L80.241,60.924z"/>
	<path d="M30.541,105.925l-0.2-2.5c-0.1-1.3,0.4-2.5,1.301-3.4l11.699-11.699c0.301-0.301,0.801-0.301,1.101,0
		c2.399,2.399,6.2,2.399,8.6,0l3.9-3.9l-4.8-4.8l-3.801-3.8l-3.8-3.801l-4.8-4.8l-3.9,3.9c-2.399,2.399-2.399,6.2,0,8.6
		c0.301,0.3,0.301,0.8,0,1.101l-11.8,11.699c-0.899,0.9-2.1,1.4-3.399,1.301l-2.5-0.2c-1-0.101-1.9,0.3-2.601,1.1l-14.799,18.2
		c-1,1.2-0.9,3,0.2,4.1l3.1,3.101l3.1,3.1c1.1,1.101,2.8,1.2,4.1,0.2l18.2-14.8C30.142,107.825,30.541,106.925,30.541,105.925z"/>
</g>
<g>
</g>
<g>
</g>
<g>
</g>
<g>
</g>
<g>
</g>
<g>
</g>
<g>
</g>
<g>
</g>
<g>
</g>
<g>
</g>
<g>
</g>
<g>
</g>
<g>
</g>
<g>
</g>
<g>
</g>
</svg>
