<?xml version="1.0" encoding="UTF-8" standalone="no"?>
<!-- Created with Inkscape (http://www.inkscape.org/) -->

<svg
   xmlns:dc="http://purl.org/dc/elements/1.1/"
   xmlns:cc="http://creativecommons.org/ns#"
   xmlns:rdf="http://www.w3.org/1999/02/22-rdf-syntax-ns#"
   xmlns:svg="http://www.w3.org/2000/svg"
   xmlns="http://www.w3.org/2000/svg"
   xmlns:sodipodi="http://sodipodi.sourceforge.net/DTD/sodipodi-0.dtd"
   xmlns:inkscape="http://www.inkscape.org/namespaces/inkscape"
   width="210"
   height="57"
   id="svg5970"
   version="1.1"
   inkscape:version="0.48.3.1 r9886"
   sodipodi:docname="New document 3">
  <defs
     id="defs5972" />
  <sodipodi:namedview
     id="base"
     pagecolor="#ffffff"
     bordercolor="#666666"
     borderopacity="1.0"
     inkscape:pageopacity="0.0"
     inkscape:pageshadow="2"
     inkscape:zoom="1.979899"
     inkscape:cx="108.13697"
     inkscape:cy="106.80374"
     inkscape:document-units="px"
     inkscape:current-layer="layer1"
     showgrid="false"
     fit-margin-top="0"
     fit-margin-left="0"
     fit-margin-right="0"
     fit-margin-bottom="0"
     inkscape:window-width="1680"
     inkscape:window-height="988"
     inkscape:window-x="-8"
     inkscape:window-y="-8"
     inkscape:window-maximized="1" />
  <metadata
     id="metadata5975">
    <rdf:RDF>
      <cc:Work
         rdf:about="">
        <dc:format>image/svg+xml</dc:format>
        <dc:type
           rdf:resource="http://purl.org/dc/dcmitype/StillImage" />
        <dc:title></dc:title>
      </cc:Work>
    </rdf:RDF>
  </metadata>
  <g
     inkscape:label="Layer 1"
     inkscape:groupmode="layer"
     id="layer1"
     transform="translate(-5.5937811,-994.22735)">
    <g
       id="g6039"
       transform="matrix(0.78048044,0,0,0.78048044,11.015467,223.81396)">
      <g
         inkscape:export-ydpi="39.355751"
         inkscape:export-xdpi="39.355751"
         inkscape:export-filename="C:\Users\ryansturmer\Desktop\shopbot_48x212.png"
         transform="matrix(0.62882383,0,0,-0.62882383,185.31792,1041.5705)"
         id="g914">
        <path
           inkscape:connector-curvature="0"
           id="path916"
           style="fill:#2e3165;fill-opacity:1;fill-rule:nonzero;stroke:none"
           d="m 0,0 94.384,-0.115 0.79,-0.014 0.773,-0.1 0.771,-0.179 0.745,-0.256 0.71,-0.334 0.677,-0.402 0.623,-0.473 0.583,-0.531 0.514,-0.593 0.453,-0.641 0.384,-0.685 0.32,-0.722 0.228,-0.75 0.157,-0.771 0.079,-0.782 -0.045,-0.815 -0.132,-0.806 -0.215,-0.787 -0.297,-0.769 -0.37,-0.721 -0.444,-0.692 -0.512,-0.63 -0.567,-0.582 -0.642,-0.514 -0.684,-0.448 -0.722,-0.378 -0.768,-0.297 -0.785,-0.215 -0.803,-0.135 -0.821,-0.049 -373.968,-0.171 -0.719,0.121 -0.702,0.195 -0.682,0.26 -0.641,0.334 -0.611,0.401 -0.565,0.462 -0.515,0.512 -0.456,0.563 -0.401,0.614 -0.328,0.649 -0.255,0.679 -0.195,0.708 -0.116,0.713 -0.04,0.728 0.036,0.731 0,0.748 0.071,0.744 0.152,0.732 0.23,0.709 0.3,0.686 0.368,0.65 0.438,0.605 0.492,0.561 0.553,0.506 0.598,0.439 0.644,0.382 0.679,0.315 0.707,0.239 0.729,0.167 0.739,0.089 150.378,0 0.155,-0.899 0.228,-0.882 0.334,-0.85 0.418,-0.808 0.493,-0.764 0.572,-0.718 0.645,-0.643 0.706,-0.574 0.761,-0.504 0.814,-0.411 0.85,-0.334 0.88,-0.246 0.894,-0.147 0.912,-0.057 112.534,0.084 0.834,0.12 0.82,0.215 0.794,0.286 0.759,0.37 0.719,0.446 0.672,0.517 0.613,0.586 0.547,0.639 0.488,0.694 0.414,0.738 0.331,0.775 0.255,0.81 0.164,0.831 L 0,0 z" />
      </g>
      <g
         inkscape:export-ydpi="39.355751"
         inkscape:export-xdpi="39.355751"
         inkscape:export-filename="C:\Users\ryansturmer\Desktop\shopbot_48x212.png"
         transform="matrix(0.62882383,0,0,-0.62882383,176.4769,1036.9832)"
         id="g918">
        <path
           inkscape:connector-curvature="0"
           id="path920"
           style="fill:#2e3165;fill-opacity:1;fill-rule:nonzero;stroke:none"
           d="m 0,0 -0.341,0.016 -0.332,0.058 -0.334,0.086 -0.312,0.119 -0.307,0.157 -0.277,0.185 -0.271,0.216 -0.235,0.235 -0.213,0.266 -0.189,0.284 -0.153,0.302 -0.119,0.319 -0.089,0.328 -0.056,0.335 -0.017,0.335 0.017,0.342 0.056,0.333 0.089,0.33 0.119,0.32 0.153,0.295 0.189,0.284 0.213,0.261 0.235,0.24 0.271,0.215 0.277,0.189 0.307,0.15 0.312,0.127 0.334,0.084 0.332,0.056 L 0,6.482 6.126,6.482 6.464,6.467 6.799,6.411 7.128,6.327 7.442,6.2 7.746,6.05 8.032,5.861 8.294,5.646 8.536,5.406 8.751,5.145 8.933,4.861 9.09,4.566 9.208,4.246 9.296,3.916 9.348,3.583 9.362,3.241 9.348,2.906 9.296,2.571 9.208,2.243 9.09,1.924 8.933,1.622 8.751,1.338 8.536,1.072 8.294,0.837 8.032,0.621 7.746,0.436 7.442,0.279 7.128,0.16 6.799,0.074 6.464,0.016 6.126,0 0,0 z" />
      </g>
      <g
         inkscape:export-ydpi="39.355751"
         inkscape:export-xdpi="39.355751"
         inkscape:export-filename="C:\Users\ryansturmer\Desktop\shopbot_48x212.png"
         transform="matrix(0.62882383,0,0,-0.62882383,176.36391,1041.3936)"
         id="g922">
        <path
           inkscape:connector-curvature="0"
           id="path924"
           style="fill:#2e3165;fill-opacity:1;fill-rule:nonzero;stroke:none"
           d="m 0,0 0,4.649 6.481,0 L 6.481,0 6.464,-0.339 6.413,-0.668 6.324,-0.996 6.206,-1.317 6.047,-1.612 5.864,-1.902 5.651,-2.162 5.41,-2.404 5.146,-2.624 4.864,-2.809 4.561,-2.959 4.241,-3.078 3.915,-3.167 3.58,-3.219 3.245,-3.234 l -0.342,0.015 -0.335,0.052 -0.33,0.089 -0.313,0.119 -0.301,0.15 -0.286,0.185 -0.261,0.22 -0.24,0.242 -0.219,0.26 -0.18,0.29 -0.154,0.295 -0.127,0.321 -0.086,0.328 -0.05,0.329 L 0,0 z" />
      </g>
      <g
         inkscape:export-ydpi="39.355751"
         inkscape:export-xdpi="39.355751"
         inkscape:export-filename="C:\Users\ryansturmer\Desktop\shopbot_48x212.png"
         transform="matrix(0.62882383,0,0,-0.62882383,89.429329,1022.239)"
         id="g926">
        <path
           inkscape:connector-curvature="0"
           id="path928"
           style="fill:#2e3165;fill-opacity:1;fill-rule:nonzero;stroke:none"
           d="m 0,0 0.027,-0.456 0.071,-0.45 0.115,-0.444 0.168,-0.422 0.202,-0.409 0.245,-0.388 0.293,-0.349 0.323,-0.324 0.353,-0.283 0.384,-0.257 0.407,-0.203 0.425,-0.162 0.445,-0.116 0.444,-0.073 0.459,-0.019 7.315,0 0.46,0.019 0.444,0.073 0.445,0.116 0.422,0.162 0.406,0.203 0.383,0.257 0.357,0.283 0.324,0.324 0.285,0.349 0.246,0.388 0.213,0.409 0.155,0.422 0.124,0.444 0.069,0.45 0.024,0.456 0,11.205 -0.024,0.46 -0.069,0.443 -0.124,0.446 -0.155,0.423 -0.213,0.409 -0.246,0.386 -0.285,0.351 -0.324,0.324 -0.357,0.282 -0.383,0.25 -0.406,0.21 -0.422,0.163 -0.445,0.12 -0.444,0.067 -0.46,0.025 -7.315,0 L 3.902,15.539 3.458,15.472 3.013,15.352 2.588,15.189 2.181,14.979 1.797,14.729 1.444,14.447 1.121,14.123 0.828,13.772 0.583,13.386 0.381,12.977 0.213,12.554 0.098,12.108 0.027,11.665 0,11.205 0,0 m -9.959,-2.181 0,15.567 0.061,1.27 0.202,1.255 0.328,1.229 0.457,1.18 0.575,1.141 0.692,1.061 0.803,0.989 0.901,0.899 0.982,0.795 1.063,0.694 1.136,0.577 1.186,0.46 1.227,0.324 1.258,0.204 1.269,0.063 11.672,0 1.271,-0.063 1.255,-0.204 1.229,-0.324 1.189,-0.46 1.133,-0.577 1.061,-0.694 0.989,-0.795 0.899,-0.899 0.798,-0.989 0.692,-1.061 0.582,-1.141 0.452,-1.18 0.33,-1.229 0.193,-1.255 0.067,-1.27 0,-15.567 -0.067,-1.271 -0.193,-1.249 -0.33,-1.235 -0.452,-1.182 -0.582,-1.134 -0.692,-1.067 -0.798,-0.983 -0.899,-0.905 -0.989,-0.798 -1.061,-0.69 -1.133,-0.576 -1.189,-0.456 -1.229,-0.335 -1.255,-0.195 -1.271,-0.066 -11.672,0 -1.269,0.066 -1.258,0.195 -1.227,0.335 -1.186,0.456 -1.136,0.576 -1.063,0.69 -0.982,0.798 -0.901,0.905 -0.803,0.983 -0.692,1.067 -0.575,1.134 -0.457,1.182 -0.328,1.235 -0.202,1.249 -0.061,1.271 z" />
      </g>
      <g
         inkscape:export-ydpi="39.355751"
         inkscape:export-xdpi="39.355751"
         inkscape:export-filename="C:\Users\ryansturmer\Desktop\shopbot_48x212.png"
         transform="matrix(0.62882383,0,0,-0.62882383,173.31625,1022.239)"
         id="g930">
        <path
           inkscape:connector-curvature="0"
           id="path932"
           style="fill:#2e3165;fill-opacity:1;fill-rule:nonzero;stroke:none"
           d="m 0,0 0.026,-0.456 0.067,-0.45 0.122,-0.444 0.162,-0.422 0.206,-0.409 0.249,-0.388 0.293,-0.349 0.318,-0.324 0.352,-0.283 0.385,-0.257 0.411,-0.203 0.421,-0.162 0.441,-0.116 0.453,-0.073 0.452,-0.019 7.316,0 0.459,0.019 0.446,0.073 0.446,0.116 0.424,0.162 0.406,0.203 0.381,0.257 0.356,0.283 0.326,0.324 0.283,0.349 0.246,0.388 0.211,0.409 0.164,0.422 0.117,0.444 0.069,0.45 0.025,0.456 0,11.205 -0.025,0.46 -0.069,0.443 -0.117,0.446 -0.164,0.423 -0.211,0.409 -0.246,0.386 -0.283,0.351 -0.326,0.324 -0.356,0.282 -0.381,0.25 -0.406,0.21 -0.424,0.163 -0.446,0.12 -0.446,0.067 -0.459,0.025 -7.316,0 L 3.906,15.539 3.453,15.472 3.012,15.352 2.591,15.189 2.18,14.979 1.795,14.729 1.443,14.447 1.125,14.123 0.832,13.772 0.583,13.386 0.377,12.977 0.215,12.554 0.093,12.108 0.026,11.665 0,11.205 0,0 m -9.957,-2.181 0,15.567 0.063,1.27 0.199,1.255 0.332,1.229 0.455,1.18 0.576,1.141 0.687,1.061 0.803,0.989 0.899,0.899 0.983,0.795 1.069,0.694 1.135,0.577 1.188,0.46 1.224,0.324 1.253,0.204 1.271,0.063 11.675,0 1.264,-0.063 1.26,-0.204 1.226,-0.324 1.192,-0.46 1.133,-0.577 1.06,-0.694 0.986,-0.795 0.903,-0.899 0.798,-0.989 0.692,-1.061 0.572,-1.141 0.459,-1.18 0.332,-1.229 0.194,-1.255 0.066,-1.27 0,-15.567 -0.066,-1.271 -0.194,-1.249 -0.332,-1.235 -0.459,-1.182 -0.572,-1.134 -0.692,-1.067 -0.798,-0.983 -0.903,-0.905 -0.986,-0.798 -1.06,-0.69 -1.133,-0.576 -1.192,-0.456 -1.226,-0.335 -1.26,-0.195 -1.264,-0.066 -11.675,0 -1.271,0.066 -1.253,0.195 -1.224,0.335 -1.188,0.456 -1.135,0.576 -1.069,0.69 -0.983,0.798 -0.899,0.905 -0.803,0.983 -0.687,1.067 -0.576,1.134 -0.455,1.182 -0.332,1.235 -0.199,1.249 -0.063,1.271 z" />
      </g>
      <g
         inkscape:export-ydpi="39.355751"
         inkscape:export-xdpi="39.355751"
         inkscape:export-filename="C:\Users\ryansturmer\Desktop\shopbot_48x212.png"
         transform="matrix(0.62882383,0,0,-0.62882383,200.23532,1022.239)"
         id="g934">
        <path
           inkscape:connector-curvature="0"
           id="path936"
           style="fill:#2e3165;fill-opacity:1;fill-rule:nonzero;stroke:none"
           d="m 0,0 0.02,-0.431 0.064,-0.423 0.103,-0.408 0.144,-0.408 0.187,-0.386 0.218,-0.366 0.256,-0.345 0.285,-0.314 0.319,-0.288 0.345,-0.256 0.364,-0.225 0.388,-0.177 0.404,-0.147 0.415,-0.098 0.417,-0.07 0.432,-0.013 66.307,0.029 0.503,-0.026 0.497,-0.067 0.502,-0.132 0.465,-0.178 0.455,-0.212 0.433,-0.268 0.399,-0.309 0.363,-0.345 0.333,-0.381 0.292,-0.414 0.243,-0.44 0.202,-0.465 0.149,-0.481 0.105,-0.497 0.043,-0.496 0.014,-0.506 -0.057,-0.504 -0.096,-0.496 -0.149,-0.479 -0.2,-0.466 -0.24,-0.442 -0.287,-0.417 -0.329,-0.382 -0.365,-0.35 -0.398,-0.308 -0.424,-0.266 -0.459,-0.229 -0.465,-0.175 -0.486,-0.125 -0.504,-0.079 -0.506,-0.031 -68.522,-0.031 -1.187,0.057 -1.174,0.178 -1.164,0.281 -1.113,0.405 -1.086,0.511 -1.018,0.613 -0.956,0.71 -0.885,0.8 -0.803,0.885 -0.705,0.956 -0.616,1.021 -0.513,1.075 -0.393,1.126 -0.296,1.154 -0.172,1.177 -0.059,1.193 0.047,17.626 -0.522,0.027 -0.529,0.079 -0.508,0.129 -0.494,0.193 -0.471,0.235 -0.439,0.283 -0.414,0.336 -0.375,0.371 -0.34,0.406 -0.285,0.441 -0.24,0.47 -0.194,0.486 -0.136,0.513 -0.088,0.523 -0.031,0.524 0.028,0.527 0.084,0.523 0.129,0.512 0.188,0.493 0.235,0.47 0.287,0.444 0.332,0.408 0.369,0.381 0.407,0.33 0.44,0.293 0.465,0.24 0.497,0.189 0.505,0.14 0.527,0.083 0.526,0.033 0,3.423 0.025,0.524 0.081,0.512 0.14,0.502 0.184,0.492 0.232,0.466 0.291,0.434 0.324,0.402 0.372,0.372 0.402,0.324 0.437,0.287 0.466,0.237 0.487,0.186 0.504,0.136 0.518,0.08 0.517,0.03 0.523,-0.03 0.515,-0.08 0.504,-0.136 0.482,-0.186 0.467,-0.237 0.445,-0.287 0.397,-0.324 0.367,-0.372 0.334,-0.402 0.277,-0.434 0.242,-0.466 0.184,-0.492 0.129,-0.502 0.089,-0.512 L 0,28.95 l 0,-3.423 9.965,0 0.521,-0.026 0.512,-0.084 0.504,-0.137 0.49,-0.187 0.463,-0.235 0.436,-0.283 0.405,-0.329 0.366,-0.366 0.332,-0.408 0.282,-0.434 0.234,-0.471 0.195,-0.482 0.131,-0.506 0.078,-0.517 0.033,-0.518 -0.033,-0.524 -0.078,-0.512 -0.131,-0.496 -0.195,-0.491 -0.234,-0.466 -0.282,-0.44 -0.332,-0.398 -0.366,-0.37 -0.405,-0.33 L 12.455,16.23 11.992,16 11.502,15.806 10.998,15.676 10.486,15.597 9.965,15.564 0,15.564 0,0 z" />
      </g>
      <g
         inkscape:export-ydpi="39.355751"
         inkscape:export-xdpi="39.355751"
         inkscape:export-filename="C:\Users\ryansturmer\Desktop\shopbot_48x212.png"
         transform="matrix(0.62882383,0,0,-0.62882383,190.69977,1038.4533)"
         id="g938">
        <path
           inkscape:connector-curvature="0"
           id="path940"
           style="fill:#2e3165;fill-opacity:1;fill-rule:nonzero;stroke:none"
           d="m 0,0 0.254,0.049 0.25,0.066 0.26,0.11 L 1.015,0.351 1.243,0.506 1.458,0.68 1.655,0.879 1.828,1.099 1.977,1.334 2.104,1.587 2.205,1.846 2.274,2.117 2.318,2.396 2.33,2.678 2.31,2.953 2.266,3.232 2.192,3.499 2.088,3.76 1.961,4.004 1.8,4.246 1.629,4.466 1.434,4.659 1.215,4.832 0.975,4.989 0.724,5.115 0.469,5.209 0.195,5.275 -0.086,5.322 -0.363,5.34 -0.641,5.317 -0.922,5.275 -1.19,5.202 -1.393,5.131 -1.583,5.04 -1.771,4.925 -1.852,4.881 -7.646,0.52 -7.698,0.481 -7.736,0.439 -7.775,0.391 -7.814,0.34 -7.84,0.277 -7.86,0.225 -7.881,0.164 l -0.01,-0.06 -0.005,-0.061 0,-0.069 0.011,-0.058 0.009,-0.058 0.022,-0.061 0.025,-0.054 0.03,-0.052 0.029,-0.052 0.045,-0.047 0.043,-0.042 0.045,-0.035 0.061,-0.036 0.055,-0.029 0.055,-0.019 0.058,-0.023 0.066,-0.008 0.054,0 0.066,0 L 0,0 z" />
      </g>
      <g
         inkscape:export-ydpi="39.355751"
         inkscape:export-xdpi="39.355751"
         inkscape:export-filename="C:\Users\ryansturmer\Desktop\shopbot_48x212.png"
         transform="matrix(0.62882383,0,0,-0.62882383,168.85676,1039.8203)"
         id="g942">
        <path
           inkscape:connector-curvature="0"
           id="path944"
           style="fill:#2e3165;fill-opacity:1;fill-rule:nonzero;stroke:none"
           d="m 0,0 -0.255,0.109 -0.265,0.088 -0.272,0.059 -0.272,0.031 -0.285,0 L -1.629,0.256 -1.901,0.197 -2.162,0.109 -2.42,0 l -0.246,-0.144 -0.223,-0.167 -0.208,-0.183 -0.182,-0.207 -0.17,-0.219 -0.143,-0.246 -0.115,-0.258 -0.084,-0.262 -0.062,-0.271 -0.031,-0.276 -0.005,-0.285 0.03,-0.274 0.057,-0.275 0.082,-0.259 0.114,-0.262 0.137,-0.244 0.162,-0.227 0.186,-0.209 0.205,-0.187 0.223,-0.174 0.238,-0.135 0.213,-0.1 0.21,-0.079 0.222,-0.057 0.228,-0.046 0.221,-0.022 0.097,0 7.246,0.224 0.065,0 0.062,0.004 0.065,0.016 0.048,0.029 0.055,0.031 0.051,0.032 0.05,0.037 0.046,0.039 0.04,0.054 0.033,0.053 0.031,0.051 0.029,0.058 0.015,0.051 0.012,0.064 0.004,0.061 0,0.065 -0.004,0.06 -0.012,0.061 -0.015,0.061 -0.029,0.058 -0.031,0.051 -0.033,0.053 -0.04,0.046 -0.041,0.045 -0.05,0.039 L 6.289,-3.688 0.035,-0.023 0,0 z" />
      </g>
      <g
         inkscape:export-ydpi="39.355751"
         inkscape:export-xdpi="39.355751"
         inkscape:export-filename="C:\Users\ryansturmer\Desktop\shopbot_48x212.png"
         transform="matrix(0.62882383,0,0,-0.62882383,167.16736,1033.338)"
         id="g946">
        <path
           inkscape:connector-curvature="0"
           id="path948"
           style="fill:#2e3165;fill-opacity:1;fill-rule:nonzero;stroke:none"
           d="M 0,0 -0.215,0.185 -0.445,0.342 -0.689,0.475 -0.949,0.581 -1.21,0.661 -1.492,0.71 -1.768,0.729 -2.04,0.725 -2.324,0.692 -2.591,0.625 -2.856,0.53 -3.109,0.41 -3.345,0.268 -3.571,0.095 l -0.203,-0.187 -0.183,-0.215 -0.159,-0.23 -0.133,-0.244 -0.105,-0.257 -0.084,-0.269 -0.049,-0.27 -0.025,-0.277 0.003,-0.285 0.037,-0.279 0.061,-0.273 0.093,-0.261 0.118,-0.258 0.143,-0.235 0.171,-0.224 0.186,-0.204 0.17,-0.15 0.185,-0.132 0.194,-0.131 0.206,-0.1 0.208,-0.089 0.089,-0.026 7.016,-1.837 0.062,-0.016 0.064,-0.003 0.058,0 0.062,0.003 0.067,0.008 0.057,0.026 0.056,0.016 0.056,0.031 0.048,0.036 0.048,0.04 0.047,0.044 0.036,0.047 0.038,0.047 0.029,0.057 0.024,0.064 0.014,0.057 0.012,0.063 0.003,0.057 0,0.058 -0.003,0.066 -0.012,0.061 -0.016,0.055 -0.029,0.06 L 5.056,-5.41 5.022,-5.357 4.979,-5.311 0.029,-0.024 0,0 z" />
      </g>
      <g
         inkscape:export-ydpi="39.355751"
         inkscape:export-xdpi="39.355751"
         inkscape:export-filename="C:\Users\ryansturmer\Desktop\shopbot_48x212.png"
         transform="matrix(0.62882383,0,0,-0.62882383,162.555,1003.7636)"
         id="g950">
        <path
           inkscape:connector-curvature="0"
           id="path952"
           style="fill:#2e3165;fill-opacity:1;fill-rule:nonzero;stroke:none"
           d="m 0,0 -0.22,1.349 -0.364,1.317 -0.503,1.275 -0.63,1.208 -0.752,1.141 -0.872,1.062 -0.972,0.957 -1.062,0.852 -1.162,0.736 -1.223,0.613 -1.277,0.48 -1.324,0.346 -1.354,0.203 -1.366,0.064 -20.151,-0.041 -0.998,-0.042 -0.991,-0.147 -0.971,-0.246 -0.948,-0.334 -0.898,-0.425 L -38.9,9.852 -39.709,9.256 -40.449,8.586 -41.123,7.837 -41.716,7.038 -42.23,6.18 -42.665,5.275 -43,4.329 -43.246,3.361 -43.393,2.373 -43.441,1.37 l 0,-40.718 0.031,-0.516 0.08,-0.519 0.135,-0.497 0.184,-0.49 0.241,-0.466 0.28,-0.439 0.328,-0.403 0.369,-0.367 0.408,-0.328 0.437,-0.284 0.464,-0.239 0.488,-0.19 0.506,-0.131 0.515,-0.082 0.516,-0.026 0.525,0.026 0.512,0.082 0.506,0.131 0.486,0.19 0.459,0.239 0.44,0.284 0.403,0.328 0.371,0.367 0.328,0.403 0.286,0.439 0.238,0.466 0.186,0.49 0.133,0.497 0.08,0.519 0.025,0.516 0,37.842 0.016,0.297 0.047,0.305 0.074,0.292 0.102,0.293 0.131,0.277 0.158,0.261 0.183,0.246 0.203,0.224 0.234,0.205 0.237,0.187 0.258,0.152 0.283,0.131 0.287,0.106 0.295,0.072 0.302,0.048 0.304,0.015 17.703,0 0.391,-0.052 0.387,-0.089 0.371,-0.125 0.367,-0.167 0.335,-0.206 0.325,-0.23 0.293,-0.265 0.266,-0.293 0.231,-0.325 0.208,-0.34 0.16,-0.356 0.127,-0.376 0.098,-0.386 0.05,-0.398 -0.076,-0.419 -0.115,-0.408 -0.156,-0.397 -0.202,-0.382 -0.236,-0.355 -0.273,-0.329 -0.297,-0.299 -0.344,-0.262 -0.355,-0.235 -0.386,-0.186 -0.4,-0.149 -0.416,-0.109 -0.423,-0.063 -0.429,-0.015 -0.422,0.027 -11.425,-0.012 -0.519,-0.03 -0.517,-0.081 -0.502,-0.135 -0.487,-0.182 -0.467,-0.246 -0.441,-0.283 -0.401,-0.329 -0.363,-0.366 -0.334,-0.408 -0.279,-0.434 -0.238,-0.465 -0.186,-0.486 -0.135,-0.508 -0.08,-0.513 -0.029,-0.522 0.029,-0.518 0.084,-0.517 0.133,-0.502 0.186,-0.486 0.236,-0.465 0.286,-0.44 0.327,-0.402 0.371,-0.372 0.408,-0.324 0.434,-0.283 0.465,-0.24 0.484,-0.182 0.506,-0.137 0.514,-0.079 0.523,-0.032 12.238,0.032 0.489,0 0.476,-0.046 0.473,-0.089 0.461,-0.147 0.441,-0.177 0.429,-0.227 0.401,-0.265 0.375,-0.314 0.335,-0.334 0.304,-0.372 0.277,-0.396 0.222,-0.43 0.185,-0.449 0.136,-0.455 0.094,-0.471 0.041,-0.481 0.027,-9.197 -0.027,-0.431 -0.055,-0.422 -0.104,-0.418 -0.144,-0.405 -0.176,-0.384 -0.228,-0.372 -0.255,-0.339 -0.286,-0.321 -0.319,-0.293 -0.346,-0.255 -0.364,-0.219 -0.389,-0.184 -0.403,-0.14 -0.413,-0.105 -0.426,-0.067 -0.428,-0.023 -13.495,0.023 -0.521,-0.033 -0.517,-0.079 -0.504,-0.136 -0.492,-0.187 -0.463,-0.236 -0.432,-0.282 -0.41,-0.33 -0.366,-0.372 -0.33,-0.401 -0.288,-0.436 -0.231,-0.469 -0.189,-0.481 -0.137,-0.508 -0.082,-0.51 -0.025,-0.527 0.025,-0.515 0.082,-0.52 0.137,-0.502 0.189,-0.485 0.231,-0.466 0.283,-0.439 0.328,-0.406 0.371,-0.366 0.403,-0.335 0.436,-0.277 0.468,-0.239 0.483,-0.185 0.504,-0.14 0.515,-0.08 0.523,-0.026 15.27,-0.004 1.271,0.066 1.256,0.195 1.222,0.329 1.186,0.456 1.134,0.58 1.058,0.696 0.998,0.791 0.894,0.902 0.801,0.986 0.689,1.062 0.573,1.137 0.46,1.192 0.325,1.223 0.202,1.26 0.067,1.267 0,13.861 -0.083,1.186 -0.202,1.171 -0.307,1.152 -0.427,1.113 -0.529,1.062 -0.63,1.009 -0.73,0.94 -0.816,0.869 -0.887,0.778 0.671,0.849 0.577,0.908 0.492,0.961 0.386,1.012 0.288,1.045 0.186,1.061 L 0,-1.506 0,0 z" />
      </g>
      <g
         inkscape:export-ydpi="39.355751"
         inkscape:export-xdpi="39.355751"
         inkscape:export-filename="C:\Users\ryansturmer\Desktop\shopbot_48x212.png"
         transform="matrix(0.62882383,0,0,-0.62882383,52.917359,1003.3264)"
         id="g954">
        <path
           inkscape:connector-curvature="0"
           id="path956"
           style="fill:#2e3165;fill-opacity:1;fill-rule:nonzero;stroke:none"
           d="m 0,0 0,1.244 -0.181,1.162 -0.289,1.133 -0.408,1.1 -0.518,1.049 -0.623,0.994 -0.715,0.931 -0.817,0.842 -0.888,0.758 -0.962,0.664 -1.03,0.56 -1.077,0.455 -1.121,0.344 -1.15,0.231 -1.167,0.098 -1.175,-0.003 -20.968,0.061 -1.378,-0.031 -1.367,-0.172 -1.336,-0.315 -1.305,-0.449 -1.241,-0.591 -1.178,-0.706 -1.098,-0.837 -1.003,-0.946 -0.898,-1.035 -0.786,-1.13 -0.667,-1.203 -0.534,-1.27 -0.396,-1.323 -0.264,-1.344 -0.111,-1.375 0.023,-1.83 0.062,-1.218 0.175,-1.198 0.281,-1.181 0.436,-1.277 0.56,-1.229 0.681,-1.154 0.793,-1.098 0.903,-1 1,-0.903 1.082,-0.806 1.162,-0.69 1.221,-0.577 1.264,-0.437 1.31,-0.316 1.339,-0.183 20.791,-1.954 0.522,-0.069 0.504,-0.109 0.493,-0.168 0.473,-0.226 0.454,-0.265 0.411,-0.314 0.389,-0.349 0.345,-0.387 0.304,-0.425 0.262,-0.454 0.208,-0.481 0.16,-0.496 0.107,-0.508 0.052,-0.524 0.089,-6.896 -0.067,-0.513 -0.126,-0.502 -0.167,-0.492 -0.22,-0.465 -0.271,-0.443 -0.316,-0.414 -0.349,-0.377 -0.387,-0.338 -0.429,-0.294 -0.452,-0.252 -0.477,-0.207 -0.493,-0.153 -0.503,-0.105 -0.516,-0.051 -45.753,0.004 -10.522,0 -0.015,0 -0.507,-0.026 -0.505,-0.083 -0.489,-0.131 -0.478,-0.178 -0.456,-0.229 -0.436,-0.279 -0.396,-0.312 -0.367,-0.357 -0.322,-0.391 -0.287,-0.425 -0.248,-0.448 -0.187,-0.474 -0.147,-0.489 -0.092,-0.502 -0.044,-0.506 0.014,-0.51 0.062,-0.505 0.117,-0.498 0.157,-0.479 0.212,-0.466 0.26,-0.441 0.304,-0.412 0.341,-0.377 0.375,-0.34 0.414,-0.302 0.441,-0.257 0.462,-0.209 0.482,-0.168 0.502,-0.104 0.507,-0.063 59.277,-0.01 1.271,0.066 1.254,0.195 1.229,0.335 1.187,0.455 1.134,0.577 1.058,0.69 0.988,0.798 0.905,0.898 0.799,0.989 0.685,1.068 0.585,1.129 0.453,1.187 0.327,1.235 0.201,1.249 0.065,1.266 0.008,11.366 -0.06,1.224 -0.183,1.209 -0.303,1.176 -0.418,1.149 -0.533,1.094 -0.64,1.035 -0.747,0.973 -0.83,0.89 -0.921,0.799 -0.999,0.701 -1.061,0.605 -1.117,0.492 -1.161,0.377 -1.189,0.262 -1.21,0.137 -22.719,2.378 -0.422,0.141 -0.408,0.183 -0.381,0.219 -0.367,0.256 -0.345,0.293 -0.298,0.32 -0.276,0.355 -0.235,0.376 -0.2,0.393 -0.168,0.418 -0.115,0.429 -0.077,0.434 -0.031,0.444 0.063,0.455 0.115,0.45 0.158,0.428 0.203,0.414 0.245,0.397 0.279,0.356 0.324,0.335 0.353,0.293 0.382,0.26 0.409,0.221 0.426,0.167 0.442,0.13 0.451,0.078 0.46,0.038 0.457,-0.016 17.67,0.021 0.412,-0.016 0.409,-0.047 0.398,-0.09 0.39,-0.13 0.373,-0.172 0.358,-0.199 0.335,-0.235 0.31,-0.268 0.283,-0.298 0.255,-0.318 0.22,-0.35 0.186,-0.363 0.152,-0.386 0.11,-0.392 0.141,-0.476 0.183,-0.454 0.232,-0.429 0.275,-0.413 0.316,-0.377 0.354,-0.349 0.381,-0.305 0.418,-0.271 0.436,-0.225 0.461,-0.172 0.476,-0.131 0.488,-0.084 0.493,-0.021 0.487,0.015 0.493,0.069 0.476,0.121 0.466,0.166 0.443,0.21 0.419,0.267 0.392,0.292 0.361,0.34 0.324,0.377 0.281,0.397 0.242,0.433 0.193,0.457 0.151,0.47 0.095,0.481 L 0,-0.502 0,0 z" />
      </g>
      <g
         inkscape:export-ydpi="39.355751"
         inkscape:export-xdpi="39.355751"
         inkscape:export-filename="C:\Users\ryansturmer\Desktop\shopbot_48x212.png"
         transform="matrix(0.62882383,0,0,-0.62882383,57.195689,1028.5064)"
         id="g958">
        <path
           inkscape:connector-curvature="0"
           id="path960"
           style="fill:#2e3165;fill-opacity:1;fill-rule:nonzero;stroke:none"
           d="m 0,0 0,46.699 0.03,0.524 0.079,0.517 0.138,0.501 0.183,0.488 0.239,0.464 0.281,0.44 0.335,0.402 0.366,0.366 0.403,0.329 0.439,0.289 0.465,0.235 0.488,0.184 0.503,0.14 0.51,0.078 0.529,0.026 0.517,-0.026 0.513,-0.078 0.502,-0.14 0.491,-0.184 0.466,-0.235 0.428,-0.289 0.414,-0.329 0.365,-0.366 0.331,-0.402 0.28,-0.44 L 9.534,48.729 9.72,48.241 9.855,47.74 9.937,47.223 9.969,46.699 9.969,0 9.937,-0.517 9.855,-1.035 9.72,-1.532 9.534,-2.022 9.295,-2.488 9.015,-2.928 8.684,-3.33 8.319,-3.697 7.905,-4.025 7.477,-4.31 7.011,-4.549 6.52,-4.738 6.018,-4.869 5.505,-4.951 4.988,-4.978 4.459,-4.951 3.949,-4.869 3.446,-4.738 2.958,-4.549 2.493,-4.31 2.054,-4.025 1.651,-3.697 1.285,-3.33 0.95,-2.928 0.669,-2.488 0.43,-2.022 0.247,-1.532 0.109,-1.035 0.03,-0.517 0,0 z" />
      </g>
      <g
         inkscape:export-ydpi="39.355751"
         inkscape:export-xdpi="39.355751"
         inkscape:export-filename="C:\Users\ryansturmer\Desktop\shopbot_48x212.png"
         transform="matrix(0.62882383,0,0,-0.62882383,68.454969,1006.1579)"
         id="g962">
        <path
           inkscape:connector-curvature="0"
           id="path964"
           style="fill:#2e3165;fill-opacity:1;fill-rule:nonzero;stroke:none"
           d="m 0,0 5.847,0 1.261,-0.072 1.261,-0.205 1.225,-0.335 1.183,-0.453 1.135,-0.586 1.064,-0.696 0.983,-0.8 0.898,-0.905 0.792,-0.988 0.688,-1.072 0.579,-1.135 0.452,-1.187 0.32,-1.228 0.2,-1.255 0.055,-1.271 0,-23.352 -0.024,-0.517 -0.083,-0.518 -0.135,-0.497 -0.186,-0.491 -0.238,-0.465 -0.286,-0.44 -0.321,-0.402 -0.371,-0.367 -0.407,-0.328 -0.438,-0.285 -0.464,-0.239 -0.487,-0.189 -0.502,-0.131 -0.516,-0.082 -0.52,-0.027 -0.518,0.027 -0.516,0.082 -0.505,0.131 -0.489,0.189 -0.46,0.239 -0.44,0.285 -0.402,0.328 -0.372,0.367 -0.328,0.402 -0.283,0.44 -0.241,0.465 -0.183,0.491 -0.138,0.497 -0.081,0.518 -0.025,0.517 0,21.172 -0.02,0.433 -0.065,0.423 -0.1,0.413 -0.145,0.409 -0.183,0.386 -0.221,0.371 -0.256,0.351 -0.289,0.319 -0.318,0.288 -0.35,0.255 -0.363,0.221 -0.393,0.187 -0.406,0.148 -0.412,0.099 -0.428,0.068 -0.434,0.02 L 0,-9.986 l -0.522,0.031 -0.516,0.084 -0.499,0.13 -0.488,0.188 -0.466,0.241 -0.435,0.282 -0.407,0.331 -0.369,0.37 -0.321,0.408 -0.287,0.434 -0.241,0.465 -0.184,0.486 -0.133,0.508 -0.085,0.512 -0.025,0.518 0.025,0.528 0.085,0.512 0.133,0.502 0.184,0.486 0.241,0.471 0.287,0.434 0.321,0.408 0.369,0.366 0.407,0.335 0.435,0.282 0.466,0.235 0.488,0.188 0.499,0.142 0.516,0.079 L 0,0 z" />
      </g>
      <g
         inkscape:export-ydpi="39.355751"
         inkscape:export-xdpi="39.355751"
         inkscape:export-filename="C:\Users\ryansturmer\Desktop\shopbot_48x212.png"
         transform="matrix(0.62882383,0,0,-0.62882383,109.20137,1038.2925)"
         id="g966">
        <path
           inkscape:connector-curvature="0"
           id="path968"
           style="fill:#2e3165;fill-opacity:1;fill-rule:nonzero;stroke:none"
           d="m 0,0 0,38.915 0.074,1.271 0.197,1.254 0.324,1.229 0.459,1.181 0.577,1.14 0.691,1.062 0.799,0.988 0.899,0.899 0.986,0.795 1.065,0.695 1.136,0.576 1.183,0.46 1.231,0.324 1.258,0.204 1.268,0.064 11.672,0 1.269,-0.064 1.26,-0.204 1.224,-0.324 1.187,-0.46 1.137,-0.576 1.062,-0.695 0.984,-0.795 0.901,-0.899 0.799,-0.988 0.689,-1.062 0.579,-1.14 0.457,-1.181 0.331,-1.229 0.198,-1.254 0.066,-1.271 0,-15.566 -0.066,-1.272 -0.198,-1.249 -0.331,-1.234 -0.457,-1.183 -0.579,-1.134 -0.689,-1.067 -0.799,-0.982 -0.901,-0.906 -0.984,-0.798 -1.062,-0.69 -1.137,-0.576 -1.187,-0.455 -1.224,-0.335 -1.26,-0.196 -1.269,-0.066 -5.836,0 -0.524,0.026 -0.512,0.081 -0.506,0.139 -0.49,0.185 -0.466,0.239 -0.436,0.277 -0.403,0.331 -0.368,0.37 -0.325,0.406 -0.284,0.439 -0.239,0.461 -0.187,0.486 -0.138,0.501 -0.082,0.525 -0.022,0.512 0.022,0.53 0.082,0.506 0.138,0.506 0.187,0.487 0.239,0.465 0.284,0.44 0.325,0.397 0.368,0.377 0.403,0.329 0.436,0.282 0.466,0.236 0.49,0.183 0.506,0.141 0.512,0.079 0.524,0.032 3.656,0 0.459,0.019 0.446,0.074 0.443,0.115 0.431,0.162 0.401,0.203 0.384,0.257 0.358,0.283 0.316,0.324 0.291,0.349 0.25,0.389 0.202,0.408 0.165,0.423 0.117,0.443 0.077,0.45 0.021,0.456 0,11.205 -0.021,0.46 -0.077,0.444 -0.117,0.445 -0.165,0.423 -0.202,0.409 -0.25,0.387 -0.291,0.35 -0.316,0.325 -0.358,0.281 -0.384,0.251 -0.401,0.21 -0.431,0.162 -0.443,0.12 -0.446,0.067 -0.459,0.026 -7.319,0 -0.449,-0.026 -0.459,-0.067 -0.435,-0.12 -0.426,-0.162 -0.404,-0.21 -0.381,-0.251 -0.353,-0.281 -0.331,-0.325 -0.286,-0.35 L 10.55,38.915 10.342,38.506 10.187,38.083 10.063,37.638 9.984,37.194 9.965,36.734 9.965,0 9.939,-0.521 9.855,-1.033 9.723,-1.538 9.538,-2.027 9.299,-2.494 9.011,-2.929 8.685,-3.334 8.312,-3.707 7.91,-4.031 7.482,-4.317 7.014,-4.553 6.523,-4.736 6.021,-4.878 5.508,-4.955 4.982,-4.982 4.461,-4.955 3.948,-4.878 3.445,-4.736 2.959,-4.553 2.496,-4.317 2.057,-4.031 1.657,-3.707 1.287,-3.334 0.954,-2.929 0.67,-2.494 0.428,-2.027 0.246,-1.538 0.113,-1.033 0.026,-0.521 0,0 z" />
      </g>
    </g>
  </g>
</svg>
