<?xml version="1.0" encoding="utf-8"?>
<!-- Generator: Adobe Illustrator 19.1.0, SVG Export Plug-In . SVG Version: 6.00 Build 0)  -->
<svg version="1.1" id="Layer_1" xmlns="http://www.w3.org/2000/svg" xmlns:xlink="http://www.w3.org/1999/xlink" x="0px" y="0px"
	 viewBox="0 0 247.8 314.4" style="enable-background:new 0 0 247.8 314.4;" xml:space="preserve">
<style type="text/css">
	.st0{fill:#666;}
</style>
<path class="st0" d="M81.6,232.4c-13,0-23.5-11.1-23.3-24c0.2-12.9,11.1-23.7,24.2-23.3l77.5,0c12.9,0,23.7,11.6,23.3,24.4
	c-0.4,12.8-12,23.7-24.8,22.9"/>
<path class="st0" d="M96.3,251h47l0.1-0.5l0.1,40.8c0,13-11.1,23.3-24,23.2c-12.9-0.2-23.7-11.2-23.3-24.3l0-39.7"/>
<path class="st0" d="M183.3,40V0l-0.2,0.1c-48.3,0-87.3,33.2-87.3,74.2l0,92.6l0.4,0.1h47l0.1-0.1l-0.1-86.5v0
	c0-22.3,17.7-40.3,39.6-40.3"/>
<path class="st0" d="M24.8,207.1l25.3,35.7L10.5,228l1.4,0.1c-7.1-1-12.6-8-11.7-15.2c0.9-7.3,8.3-12.7,15.6-11.6
	c4.7,0.7,8.6,4,10.4,8.3"/>
<path class="st0" d="M234.6,234.6l-48.2,7l34.8-31.8l-0.8,1.3c4.6-6.6,14.4-8.5,21-3.9c6.8,4.6,8.3,14.7,3.6,21.3
	c-3,4.3-8.3,6.6-13.5,6.2"/>
<path class="st0" d="M33.1,279.5L67.6,303l-40.4,0l1.3-0.4c-6.7,1.5-14-3-15.6-9.7c-1.6-6.9,3.2-14.1,10-15.6
	c4.4-0.9,9.1,0.7,12.1,3.9"/>
</svg>
