<?xml version="1.0" encoding="UTF-8" standalone="no"?>
<!-- Created with Inkscape (http://www.inkscape.org/) -->

<svg
   xmlns:dc="http://purl.org/dc/elements/1.1/"
   xmlns:cc="http://creativecommons.org/ns#"
   xmlns:rdf="http://www.w3.org/1999/02/22-rdf-syntax-ns#"
   xmlns:svg="http://www.w3.org/2000/svg"
   xmlns="http://www.w3.org/2000/svg"
   xmlns:sodipodi="http://sodipodi.sourceforge.net/DTD/sodipodi-0.dtd"
   xmlns:inkscape="http://www.inkscape.org/namespaces/inkscape"
   width="200mm"
   height="200mm"
   viewBox="0 0 708.66142 708.66141"
   id="svg2"
   version="1.1"
   inkscape:version="0.91 r13725"
   sodipodi:docname="changepassword.svg">
  <defs
     id="defs4">
    <marker
       inkscape:stockid="Arrow2Send"
       orient="auto"
       refY="0.0"
       refX="0.0"
       id="Arrow2Send"
       style="overflow:visible;"
       inkscape:isstock="true">
      <path
         id="path4241"
         style="fill-rule:evenodd;stroke-width:0.625;stroke-linejoin:round;stroke:#e5bd21;stroke-opacity:1;fill:#e5bd21;fill-opacity:1"
         d="M 8.7185878,4.0337352 L -2.2072895,0.016013256 L 8.7185884,-4.0017078 C 6.9730900,-1.6296469 6.9831476,1.6157441 8.7185878,4.0337352 z "
         transform="scale(0.3) rotate(180) translate(-2.3,0)" />
    </marker>
    <marker
       inkscape:stockid="Arrow2Mend"
       orient="auto"
       refY="0.0"
       refX="0.0"
       id="Arrow2Mend"
       style="overflow:visible;"
       inkscape:isstock="true">
      <path
         id="path4235"
         style="fill-rule:evenodd;stroke-width:0.625;stroke-linejoin:round;stroke:#4e8300;stroke-opacity:1;fill:#4e8300;fill-opacity:1"
         d="M 8.7185878,4.0337352 L -2.2072895,0.016013256 L 8.7185884,-4.0017078 C 6.9730900,-1.6296469 6.9831476,1.6157441 8.7185878,4.0337352 z "
         transform="scale(0.6) rotate(180) translate(0,0)" />
    </marker>
    <marker
       inkscape:stockid="Arrow1Send"
       orient="auto"
       refY="0.0"
       refX="0.0"
       id="Arrow1Send"
       style="overflow:visible;"
       inkscape:isstock="true">
      <path
         id="path4223"
         d="M 0.0,0.0 L 5.0,-5.0 L -12.5,0.0 L 5.0,5.0 L 0.0,0.0 z "
         style="fill-rule:evenodd;stroke:#4e8300;stroke-width:1pt;stroke-opacity:1;fill:#4e8300;fill-opacity:1"
         transform="scale(0.2) rotate(180) translate(6,0)" />
    </marker>
    <marker
       inkscape:stockid="Arrow2Lend"
       orient="auto"
       refY="0.0"
       refX="0.0"
       id="Arrow2Lend"
       style="overflow:visible;"
       inkscape:isstock="true">
      <path
         id="path4229"
         style="fill-rule:evenodd;stroke-width:0.625;stroke-linejoin:round;stroke:#4e8300;stroke-opacity:1;fill:#4e8300;fill-opacity:1"
         d="M 8.7185878,4.0337352 L -2.2072895,0.016013256 L 8.7185884,-4.0017078 C 6.9730900,-1.6296469 6.9831476,1.6157441 8.7185878,4.0337352 z "
         transform="scale(1.1) rotate(180) translate(1,0)" />
    </marker>
    <marker
       inkscape:stockid="Arrow1Lend"
       orient="auto"
       refY="0.0"
       refX="0.0"
       id="Arrow1Lend"
       style="overflow:visible;"
       inkscape:isstock="true">
      <path
         id="path4211"
         d="M 0.0,0.0 L 5.0,-5.0 L -12.5,0.0 L 5.0,5.0 L 0.0,0.0 z "
         style="fill-rule:evenodd;stroke:#4e8300;stroke-width:1pt;stroke-opacity:1;fill:#4e8300;fill-opacity:1"
         transform="scale(0.8) rotate(180) translate(12.5,0)" />
    </marker>
  </defs>
  <sodipodi:namedview
     id="base"
     pagecolor="#ffffff"
     bordercolor="#666666"
     borderopacity="1.0"
     inkscape:pageopacity="0.0"
     inkscape:pageshadow="2"
     inkscape:zoom="0.7"
     inkscape:cx="435.41227"
     inkscape:cy="463.55254"
     inkscape:document-units="px"
     inkscape:current-layer="layer1"
     showgrid="false"
     inkscape:object-nodes="true"
     inkscape:snap-intersection-paths="true"
     inkscape:snap-bbox="true"
     inkscape:snap-global="true"
     inkscape:window-width="1309"
     inkscape:window-height="747"
     inkscape:window-x="57"
     inkscape:window-y="1101"
     inkscape:window-maximized="1" />
  <metadata
     id="metadata7">
    <rdf:RDF>
      <cc:Work
         rdf:about="">
        <dc:format>image/svg+xml</dc:format>
        <dc:type
           rdf:resource="http://purl.org/dc/dcmitype/StillImage" />
        <dc:title></dc:title>
      </cc:Work>
    </rdf:RDF>
  </metadata>
  <g
     inkscape:label="Layer 1"
     inkscape:groupmode="layer"
     id="layer1"
     transform="translate(0,-343.70079)">
    <path
       style="opacity:1;fill:#444444;fill-opacity:1;fill-rule:evenodd;stroke:none;stroke-width:8.67800045;stroke-miterlimit:4;stroke-dasharray:none;stroke-opacity:1"
       d="M 124.33008 270.04492 C 118.79008 270.04492 114.33008 274.50492 114.33008 280.04492 L 114.33008 428.61719 C 114.33008 434.15719 118.79008 438.61719 124.33008 438.61719 L 584.33008 438.61719 C 589.87008 438.61719 594.33008 434.15719 594.33008 428.61719 L 594.33008 280.04492 C 594.33008 274.50492 589.87008 270.04492 584.33008 270.04492 L 124.33008 270.04492 z M 195.81055 314.46875 L 209.1543 340.33008 L 238.02344 343.99805 L 217.55078 364.68164 L 222.98438 393.27148 L 196.98633 380.19141 L 171.47461 394.19336 L 175.88086 365.42773 L 154.68164 345.49023 L 183.40039 340.79102 L 195.81055 314.46875 z M 301.12891 314.46875 L 314.47266 340.33008 L 343.3418 343.99805 L 322.87109 364.68164 L 328.30273 393.27148 L 302.30664 380.19141 L 276.79492 394.19336 L 281.19922 365.42773 L 260 345.49023 L 288.71875 340.79102 L 301.12891 314.46875 z M 406.44727 314.46875 L 419.79297 340.33008 L 448.66016 343.99805 L 428.18945 364.68164 L 433.62109 393.27148 L 407.625 380.19141 L 382.11328 394.19336 L 386.51758 365.42773 L 365.31836 345.49023 L 394.03906 340.79102 L 406.44727 314.46875 z M 511.76758 314.46875 L 525.11133 340.33008 L 553.98047 343.99805 L 533.50781 364.68164 L 538.93945 393.27148 L 512.94336 380.19141 L 487.43164 394.19336 L 491.83789 365.42773 L 470.63867 345.49023 L 499.35742 340.79102 L 511.76758 314.46875 z "
       transform="translate(0,343.70079)"
       id="rect4138" />
    <g
       id="g4171"
       transform="translate(-7.6909399,314.46874)"
       style="fill:#444444;fill-opacity:1;fill-rule:evenodd" />
    <path
       style="fill:none;fill-rule:evenodd;stroke:#e5bd21;stroke-width:40;stroke-linecap:round;stroke-linejoin:round;stroke-miterlimit:4;stroke-dasharray:none;stroke-opacity:1;marker-end:url(#Arrow2Send)"
       d="m 218.57142,973.79081 -162.142848,1.42856 -0.714286,-585.71428 598.571424,1.42857 -1.42857,582.85715 -172.85714,0"
       id="path4202"
       inkscape:connector-curvature="0"
       sodipodi:nodetypes="cccccc" />
  </g>
</svg>
